HIERARCHY
ROOT Pelvis
{
	OFFSET 0.000000 0.000000 0.000000
	CHANNELS 6 Xposition Yposition Zposition Zrotation Yrotation Xrotation 
	JOINT Left_hip
	{
		OFFSET 0.067986 -0.089946 -0.007639
		CHANNELS 3 Zrotation Yrotation Xrotation
		JOINT Left_knee
		{
			OFFSET 0.036308 -0.388288 -0.004016
			CHANNELS 3 Zrotation Yrotation Xrotation
			JOINT Left_ankle
			{
				OFFSET -0.012264 -0.413250 -0.042878
				CHANNELS 3 Zrotation Yrotation Xrotation
				JOINT Left_foot
				{
					OFFSET 0.024043 -0.058563 0.118570
					CHANNELS 3 Zrotation Yrotation Xrotation
					End Site
					{
						OFFSET 0.000000 0.000000 0.000000
					}
				}
			}
		}
	}
	JOINT Right_hip
	{
		OFFSET -0.065648 -0.089374 -0.003858
		CHANNELS 3 Zrotation Yrotation Xrotation
		JOINT Right_knee
		{
			OFFSET -0.042132 -0.395021 -0.006361
			CHANNELS 3 Zrotation Yrotation Xrotation
			JOINT Right_ankle
			{
				OFFSET 0.014805 -0.413264 -0.041054
				CHANNELS 3 Zrotation Yrotation Xrotation
				JOINT Right_foot
				{
					OFFSET -0.021758 -0.049013 0.121832
					CHANNELS 3 Zrotation Yrotation Xrotation
					End Site
					{
						OFFSET 0.000000 0.000000 0.000000
					}
				}
			}
		}
	}
	JOINT Spine1
	{
		OFFSET -0.002755 0.104406 -0.022277
		CHANNELS 3 Zrotation Yrotation Xrotation
		JOINT Spine2
		{
			OFFSET 0.004136 0.129393 -0.002186
			CHANNELS 3 Zrotation Yrotation Xrotation
			JOINT Spine3
			{
				OFFSET 0.001906 0.049304 0.025578
				CHANNELS 3 Zrotation Yrotation Xrotation
				JOINT Neck
				{
					OFFSET -0.004620 0.210958 -0.044063
					CHANNELS 3 Zrotation Yrotation Xrotation
					JOINT Head
					{
						OFFSET 0.003833 0.067393 0.052435
						CHANNELS 3 Zrotation Yrotation Xrotation
						End Site
						{
							OFFSET 0.000000 0.000000 0.000000
						}
					}
				}
				JOINT Left_collar
				{
					OFFSET 0.070771 0.116689 -0.037192
					CHANNELS 3 Zrotation Yrotation Xrotation
					JOINT Left_shoulder
					{
						OFFSET 0.080652 0.031596 -0.005617
						CHANNELS 3 Zrotation Yrotation Xrotation
						JOINT Left_elbow
						{
							OFFSET 0.262654 -0.015020 -0.027939
							CHANNELS 3 Zrotation Yrotation Xrotation
							JOINT Left_wrist
							{
								OFFSET 0.250438 0.010062 -0.000990
								CHANNELS 3 Zrotation Yrotation Xrotation
								JOINT Left_palm
								{
									OFFSET 0.081198 -0.010037 -0.013706
									CHANNELS 3 Zrotation Yrotation Xrotation
									End Site
									{
										OFFSET 0.000000 0.000000 0.000000
									}
								}
							}
						}
					}
				}
				JOINT Right_collar
				{
					OFFSET -0.072972 0.115556 -0.040762
					CHANNELS 3 Zrotation Yrotation Xrotation
					JOINT Right_shoulder
					{
						OFFSET -0.082917 0.031841 -0.006673
						CHANNELS 3 Zrotation Yrotation Xrotation
						JOINT Right_elbow
						{
							OFFSET -0.252882 -0.013790 -0.020410
							CHANNELS 3 Zrotation Yrotation Xrotation
							JOINT Right_wrist
							{
								OFFSET -0.255570 0.009163 -0.005138
								CHANNELS 3 Zrotation Yrotation Xrotation
								JOINT Right_palm
								{
									OFFSET -0.080804 -0.007282 -0.010415
									CHANNELS 3 Zrotation Yrotation Xrotation
									End Site
									{
										OFFSET 0.000000 0.000000 0.000000
									}
								}
							}
						}
					}
				}
			}
		}
	}
}
MOTION
Frames: 13
Frame Time: 0.100000
-0.110000 0.013315 0.163235 39.954650 73.855598 -139.989684 17.613359 9.374960 -13.865519 -6.135493 -10.248433 24.841439 -3.721395 6.220179 -12.810751 2.155475 4.631290 -15.000201 -24.103552 -12.012491 -14.265158 3.103389 3.996156 13.227436 17.252717 -5.360592 0.853230 -23.928196 2.479239 -5.127762 7.420112 0.815304 20.272837 7.962212 -5.098281 6.327996 4.867527 2.519906 -2.151705 -13.277864 -2.038422 -15.138389 -0.448410 2.229957 -12.467949 -19.613685 -20.148400 3.263130 -55.441086 -21.852028 25.779911 -41.272990 -67.667950 62.285665 12.507064 -8.410468 -10.759999 -22.025048 -11.571295 -12.167113 20.100831 18.330347 1.130204 39.300002 11.769050 -0.338972 -17.527505 42.076543 -33.838922 -9.781948 2.129775 -26.407091 23.926374 12.813564 -9.196918 
-0.077519 0.049081 0.091047 35.847459 69.849048 -146.050192 15.426703 8.242842 -23.037906 -11.564164 -6.122978 41.972804 -1.459951 4.499381 -18.932222 1.170231 4.766536 -14.150595 -27.260412 -13.322055 -10.240744 0.377994 2.311367 10.489200 17.151237 -8.411532 6.712258 -24.929803 1.954907 -7.945413 6.070463 4.009086 21.928810 8.115428 -5.250455 7.316994 4.889088 2.710143 -2.432074 -11.951024 -3.295828 -15.630741 0.742221 0.322583 -12.265723 -19.459762 -20.634441 3.611802 -53.663528 -25.185340 26.582778 -43.043923 -67.899863 64.297895 11.725736 -8.203060 -10.537498 -21.425572 -11.404218 -12.618480 20.846966 17.653394 0.981060 40.861284 8.887273 0.066570 -21.827163 46.985672 -37.723512 -9.587995 1.506064 -30.275350 24.185352 13.890035 -9.154238 
-0.057406 0.049764 0.041518 32.819415 66.685703 -149.476518 12.466476 6.567595 -24.026043 -13.541655 -5.516794 42.497191 -1.244702 5.167243 -18.850342 3.060077 4.200825 -13.226205 -25.241042 -15.451963 -12.089573 -1.129219 -4.860336 19.191823 14.764080 -14.176508 6.909173 -23.740057 3.343129 -8.293703 4.249068 4.729537 22.301911 7.985118 -4.541917 7.054097 4.791724 2.853055 -1.612589 -12.184736 -3.317261 -14.011681 0.594725 -0.137079 -10.322528 -17.302488 -18.930152 3.142129 -53.770521 -26.678650 27.108277 -41.029914 -65.922293 61.352492 11.864568 -6.676525 -9.947610 -21.899599 -11.756031 -13.818295 21.628887 17.789084 1.124844 43.259844 9.542470 2.910560 -21.130936 47.269797 -36.642924 -11.931392 0.386531 -33.246572 24.592727 13.959839 -8.172447 
-0.047929 0.029491 0.005753 31.014736 64.438375 -150.497975 9.502074 4.977846 -20.339913 -12.163369 -7.204622 33.180963 -1.312407 5.256846 -14.366488 4.100722 4.998494 -13.152924 -19.835016 -12.993102 -13.676431 -0.624131 -5.276602 24.119150 12.613515 -14.820257 3.531806 -21.296851 4.353540 -6.184425 3.375398 4.003407 21.187446 7.726164 -4.521698 7.256089 4.535581 2.546544 -1.893469 -11.988748 -3.168342 -12.701867 0.814288 -0.882951 -8.878221 -15.829318 -18.235453 2.417050 -54.292382 -25.769881 27.558364 -37.155798 -64.768384 55.943140 10.530298 -6.266468 -11.144219 -21.989398 -11.665116 -14.160959 21.984485 18.338014 0.730352 46.656835 10.317833 6.775244 -21.943454 47.784266 -37.002866 -12.575728 0.636264 -36.328786 24.450450 12.654251 -7.077261 
-0.046383 0.018378 -0.022418 30.241377 64.219955 -150.603699 6.883298 4.166864 -16.114493 -10.608680 -8.609622 24.722243 -2.357635 5.914989 -11.388506 6.081904 5.497442 -12.627625 -13.855305 -9.952829 -14.026569 -0.145941 -5.247603 24.498952 8.800764 -16.732198 -2.702804 -17.167746 5.683096 -2.178909 2.353451 2.825789 19.313713 7.542726 -5.056308 7.181368 4.362356 1.738985 -2.321911 -10.131906 -5.591338 -12.461050 1.850328 -2.590117 -7.590253 -15.855701 -16.834977 2.251620 -54.356209 -25.224640 28.187942 -37.831463 -64.651758 55.164043 7.994119 -5.639685 -10.029912 -22.469496 -12.346002 -14.809702 22.527219 17.851381 -0.015212 46.813636 10.750871 9.602919 -20.357290 48.229746 -34.624397 -11.489398 0.885000 -37.102683 24.266213 12.158543 -5.925831 
-0.046021 0.015627 -0.042033 33.428074 67.082673 -146.889213 4.497607 3.514345 -13.281927 -8.265411 -8.639380 18.943240 -1.700357 7.490277 -7.344177 6.088507 6.572748 -12.514823 -7.842283 -6.758329 -15.742405 2.092470 -1.204633 24.692783 5.978455 -15.006110 -8.529625 -12.864531 5.941000 0.783233 1.967364 1.980209 18.298840 6.970617 -5.242130 7.299443 3.726760 1.509193 -4.479629 -8.186546 -15.029863 -9.466536 6.579698 -9.390382 -7.948384 -18.385876 -16.387466 3.198060 -52.637363 -23.119595 30.588719 -37.271087 -67.689763 52.519120 11.040861 4.338481 -5.368885 -25.671112 -18.626400 -19.317767 23.895823 18.650099 0.978880 43.323376 11.149882 11.174022 -16.336849 47.127049 -35.301553 -15.850329 -6.533204 -27.533510 28.952377 16.236806 -10.350171 
-0.045562 0.015807 -0.054390 38.416966 70.323496 -141.640839 3.296433 4.071143 -11.694555 -7.065228 -5.574622 15.798602 -1.486875 7.693079 -6.665522 4.874720 7.139547 -12.640849 -3.146221 -2.724018 -16.510758 6.466800 4.077554 23.215365 5.096351 -10.167040 -9.527735 -11.282354 6.586288 2.017230 2.201962 0.811361 18.021638 7.060605 -5.543803 8.278189 3.482343 1.354583 -5.008155 -5.284703 -23.422363 -8.705041 10.761401 -17.002377 -10.155533 -18.613203 -16.159341 2.686071 -53.067852 -20.469758 30.258638 -35.982984 -70.057624 49.974664 12.712107 3.933611 -5.308183 -23.982841 -17.781378 -19.006318 22.427670 19.858043 0.371632 41.433274 12.635487 11.551792 -12.459643 45.358460 -30.399312 -18.791995 -5.772326 -25.271082 26.591480 14.453547 -10.134587 
-0.042514 0.025451 -0.065650 41.785844 73.301952 -138.412877 2.337745 4.061640 -15.120716 -8.559213 -2.497351 23.258437 -1.388906 7.883578 -8.910631 4.550791 6.957270 -13.230149 -5.438212 -4.026862 -16.883064 7.259097 3.972092 23.213578 5.718269 -9.093180 -10.327001 -12.531298 6.250315 1.114355 4.223529 0.657253 18.628045 7.466255 -6.110199 9.125988 3.532342 1.390203 -4.990783 -4.146289 -27.606117 -7.836142 13.058666 -19.547610 -12.888348 -18.674498 -16.488332 3.523435 -53.988470 -20.527767 28.792212 -35.579481 -70.876385 49.572828 13.396299 2.750750 -5.445011 -23.296553 -17.245971 -19.078663 20.142253 20.336492 0.273343 39.970218 12.831951 8.501240 -11.078421 47.069952 -29.530630 -19.346026 -3.936786 -21.958035 25.447041 14.316670 -10.693350 
-0.036489 0.030935 -0.083505 52.888577 77.236529 -128.117096 3.037452 4.646951 -17.810484 -9.585504 0.808797 31.857087 -1.139307 8.814713 -11.134560 4.102667 6.753997 -14.051922 -7.506755 -4.224682 -17.951933 7.989444 5.940013 24.451111 6.582757 -6.534396 -9.589252 -13.519743 5.975277 -0.467497 5.021327 0.661380 19.855467 8.253646 -6.442038 10.483168 4.066693 1.724966 -5.113116 -2.360774 -28.772540 -8.144067 14.277610 -18.430155 -13.766677 -19.897526 -16.761146 4.711295 -54.429423 -20.197127 26.985451 -34.863330 -71.819293 48.170211 14.635356 3.096405 -6.058825 -23.057101 -17.268401 -19.272755 19.639519 20.625588 1.463265 37.500164 14.117583 5.835523 -9.133676 48.391729 -28.073644 -19.580897 -3.478337 -19.741444 24.934407 14.259612 -10.974136 
-0.034094 0.029813 -0.108493 62.952860 79.569633 -118.391122 6.311209 5.030877 -17.169620 -8.037553 1.921509 37.097704 -0.584396 9.306874 -10.516894 3.098273 6.958101 -15.129399 -9.665998 -3.977573 -16.678610 7.411474 8.152447 21.434013 7.791419 -4.930522 -7.805361 -14.779841 5.229391 -1.449559 4.466157 0.682975 18.825650 8.823078 -7.246002 10.900691 4.117923 1.254458 -5.089783 -2.793362 -28.540482 -7.082505 15.198892 -18.576759 -13.376885 -19.269171 -16.375947 5.685885 -55.619383 -20.989709 26.763334 -37.551389 -70.479828 51.752583 13.927128 2.798781 -7.017322 -22.551482 -16.387365 -18.895175 19.404943 18.479454 1.274175 40.273998 14.377752 4.957200 -9.104821 48.806522 -27.898930 -17.884031 -3.396263 -19.625595 24.799788 13.759328 -10.314024 
-0.028112 0.034403 -0.137117 72.913455 80.376814 -109.055981 11.430666 5.321007 -13.827354 -7.794234 -2.190127 33.864104 -1.488269 6.798339 -8.620405 2.662365 7.647153 -15.340128 -11.662932 -4.052916 -15.222570 6.833952 9.280269 18.398560 7.830249 -3.735738 -6.765058 -14.523450 3.997982 -0.987768 3.898856 0.443099 18.111243 8.695926 -7.206442 10.525738 4.232020 0.808984 -4.785389 -2.019376 -27.229808 -7.466165 15.013283 -19.594847 -14.086137 -19.382151 -15.800429 5.308167 -55.332640 -20.438678 27.111244 -41.100026 -71.224176 56.744653 11.972427 2.018496 -5.698802 -22.879273 -16.225654 -18.665225 19.634330 17.521186 0.964204 41.714074 11.944426 5.853369 -10.138709 50.584874 -27.390783 -14.072825 -3.047849 -21.600748 24.625836 13.524131 -9.764194 
-0.013457 0.053640 -0.177160 89.599916 80.105485 -94.066274 14.356242 2.632188 -10.691102 -9.220413 -11.250478 31.149191 -2.466751 3.267027 -8.295821 2.934141 7.689091 -16.171684 -13.451808 -3.615516 -16.491573 6.966780 10.798147 20.518202 8.297708 -3.820256 -7.228491 -16.092753 4.058070 -1.417677 3.738089 0.380575 19.883932 7.967212 -6.160246 8.513087 4.354431 0.964208 -3.273156 -1.844463 -27.096287 -8.576401 15.045976 -19.036014 -13.723302 -19.460287 -15.308954 4.323157 -54.971102 -19.362471 26.840773 -42.330100 -73.727847 58.236873 9.733559 2.405960 -6.307776 -23.976627 -16.369397 -17.077164 19.219057 17.825609 0.602715 41.208069 9.795497 6.474377 -10.315699 52.756953 -25.758754 -10.853452 -2.720817 -22.662095 24.632645 13.574065 -8.833711 
0.009078 0.087911 -0.238693 112.306257 77.293396 -73.381085 13.513808 1.347181 -9.224332 -12.905639 -19.256374 35.345653 -0.690625 0.806588 -20.338016 -0.098755 9.248329 -16.026686 -15.467969 -3.697752 -19.232628 7.170568 12.616930 21.705585 15.596154 0.574841 -4.666031 -22.546959 1.755057 -5.028549 3.361703 -0.276228 21.674405 7.737974 -4.450191 8.655233 3.999817 1.518725 -1.352400 0.596784 -24.856754 -9.507507 13.818268 -18.061021 -15.403797 -17.529157 -13.608999 0.815434 -57.728230 -18.385683 26.003479 -36.140542 -75.168366 52.485813 6.404920 -9.489385 -10.064352 -20.294992 -9.381950 -13.386941 16.470558 18.551550 -0.128546 42.455329 10.524673 6.543861 -13.961390 53.856378 -22.292006 -5.669561 6.809380 -30.874879 17.390350 7.166370 -3.260231 
